PathFileType	4	(X/Y/Z)	c:/Users/goper/Files/vsCode/490R/osim_files/C04/C04_Static.trc
DataRate	CameraRate	NumFrames	NumMarkers	Units                	OrigDataRate	OrigDataStartFrame	OrigNumFrames
250.00	250.00	6	36	mm	250.0	181	1445
                Frame#	Time	LPSIS			LASIS			LTH1			LTH2			LTH3			LTH4			LLFE			LMFE			LSH1			LSH2			LSH3			LSH4			LLMAL			LMMAL			LCAL			LMTP5			LTOE			LMTP1			RPSIS			RASIS			RTH1			RTH2			RTH3			RTH4			RLFE			RMFE			RSH1			RSH2			RSH3			RSH4			RLMAL			RMMAL			RCAL			RMTP1			RTOE			RMTP5		
		X1	Y1	Z1	X2	Y2	Z2	X3	Y3	Z3	X4	Y4	Z4	X5	Y5	Z5	X6	Y6	Z6	X7	Y7	Z7	X8	Y8	Z8	X9	Y9	Z9	X10	Y10	Z10	X11	Y11	Z11	X12	Y12	Z12	X13	Y13	Z13	X14	Y14	Z14	X15	Y15	Z15	X16	Y16	Z16	X17	Y17	Z17	X18	Y18	Z18	X19	Y19	Z19	X20	Y20	Z20	X21	Y21	Z21	X22	Y22	Z22	X23	Y23	Z23	X24	Y24	Z24	X25	Y25	Z25	X26	Y26	Z26	X27	Y27	Z27	X28	Y28	Z28	X29	Y29	Z29	X30	Y30	Z30	X31	Y31	Z31	X32	Y32	Z32	X33	Y33	Z33	X34	Y34	Z34	X35	Y35	Z35	X36	Y36	Z36

181	0.72000	-351.27029	978.80682	413.87912	-185.06323	962.25061	339.95294	-322.01163	730.16583	276.89008	-317.76941	668.70258	280.42825	-256.42990	739.79388	264.02997	-242.96590	678.32172	267.45108	-297.23288	463.26859	279.67889	-282.01880	437.10873	392.87073	-361.32809	364.21338	267.76306	-370.16528	316.99506	266.93521	-309.90591	361.56995	257.71033	-310.48154	314.34290	254.95193	-347.79074	76.94293	252.36659	-324.12338	91.10951	343.48007	-404.81723	48.38047	312.81161	-220.30974	21.47659	210.53560	-186.34007	47.49515	258.17361	-205.92072	21.44575	317.31589	-352.17059	981.55902	488.36279	-184.76277	957.63068	553.41730	-314.50616	748.08862	632.46106	-317.22260	684.89551	629.03931	-250.29782	751.23633	637.00836	-239.49731	689.77539	635.73853	-285.43311	465.88541	619.66571	-285.91614	448.08414	508.15778	-362.89645	339.47620	645.17053	-356.59027	294.35904	647.40277	-301.34982	340.69794	648.15875	-304.02356	293.76318	652.10748	-336.46716	80.48923	648.18384	-314.17230	87.64890	559.04254	-392.17786	48.12927	594.63495	-190.15253	31.24086	586.33582	-166.63391	47.26628	635.60938	-209.13269	17.88104	690.78992
182	0.72400	-351.24503	978.82733	413.84067	-185.03433	962.24207	339.94171	-321.95074	730.16278	276.85242	-317.78055	668.68451	280.45267	-256.40207	739.80701	264.03110	-242.91805	678.35651	267.45163	-297.22662	463.26422	279.69275	-281.97388	437.14172	392.86511	-361.30109	364.25247	267.73431	-370.14554	317.01086	266.93015	-309.89328	361.57141	257.70499	-310.47018	314.33670	254.94843	-347.79440	76.98075	252.34160	-324.16031	91.11092	343.50577	-404.81396	48.35140	312.81091	-220.30359	21.46277	210.52037	-186.36658	47.48506	258.17334	-205.92451	21.44734	317.32697	-352.15402	981.53613	488.32916	-184.75470	957.63403	553.42853	-314.52411	748.07123	632.44867	-317.25134	684.86182	629.01562	-250.29770	751.22192	637.02930	-239.46486	689.77869	635.75928	-285.44394	465.88580	619.68127	-285.93042	448.09042	508.14792	-362.90128	339.48596	645.17664	-356.64584	294.34195	647.36200	-301.37521	340.70087	648.18799	-304.03696	293.74622	652.09082	-336.49069	80.47937	648.18042	-314.19492	87.63454	559.04999	-392.18842	48.13918	594.63068	-190.18050	31.23329	586.35620	-166.64645	47.24357	635.60797	-209.13905	17.84954	690.79932
183	0.72800	-351.21567	978.81311	413.85364	-185.02299	962.23090	339.95905	-321.94727	730.16809	276.85397	-317.73651	668.65607	280.43195	-256.35040	739.79541	264.02914	-242.92401	678.33075	267.45074	-297.20471	463.24957	279.68732	-281.97308	437.12518	392.87903	-361.27634	364.23120	267.75262	-370.12079	317.01727	266.92834	-309.88025	361.56146	257.71814	-310.47775	314.31207	254.95030	-347.82739	76.95029	252.36681	-323.86295	91.24982	343.41129	-404.83957	48.34571	312.80225	-220.28578	21.46003	210.50941	-186.36716	47.49340	258.18198	-205.99780	21.43769	317.33057	-352.12781	981.53204	488.31000	-184.75708	957.61505	553.44592	-314.52823	748.03333	632.45758	-317.23395	684.86230	629.02826	-250.28851	751.20947	637.01624	-239.45515	689.79407	635.75970	-285.48715	465.85400	619.66693	-285.93158	448.09497	508.15204	-362.93726	339.45786	645.15704	-356.65207	294.35767	647.36987	-301.39978	340.69000	648.17889	-304.06332	293.73972	652.09479	-336.51947	80.46130	648.18646	-314.21719	87.60448	559.04120	-392.19971	48.11800	594.61072	-190.17290	31.21683	586.34906	-166.67453	47.22208	635.59961	-209.18536	17.82056	690.79767
184	0.73200	-351.17599	978.80060	413.85318	-185.02422	962.22736	339.95923	-321.84854	730.20728	276.77652	-317.64566	668.68652	280.41824	-256.33060	739.82281	264.03293	-242.88228	678.35156	267.45731	-297.13684	463.27261	279.67999	-281.93732	437.13159	392.87759	-361.28058	364.23801	267.74121	-370.10614	317.03467	266.91846	-309.89627	361.56906	257.71170	-310.43890	314.34637	254.94821	-347.79181	76.97775	252.33281	-324.16086	91.12053	343.49350	-404.85638	48.31990	312.77231	-220.32341	21.45720	210.51926	-186.37804	47.47656	258.16531	-205.95724	21.47083	317.29999	-352.10583	981.56287	488.27591	-184.69031	957.63342	553.43787	-314.48169	748.07733	632.42944	-317.17917	684.89935	629.05164	-250.27171	751.22498	637.03333	-239.41280	689.80469	635.73956	-285.45776	465.90964	619.67633	-285.92587	448.09811	508.14828	-362.93448	339.50977	645.15765	-356.67010	294.39154	647.33130	-301.43027	340.71680	648.18890	-304.06952	293.77579	652.09851	-336.50699	80.48785	648.16931	-314.20972	87.62737	559.05304	-392.21109	48.14247	594.57886	-190.19154	31.22025	586.33667	-166.64888	47.24894	635.58392	-209.14182	17.86979	690.79578
185	0.73600	-351.12540	978.75537	413.87323	-184.96400	962.24390	339.94760	-321.77396	730.22662	276.76105	-317.69009	668.60681	280.47980	-256.28058	739.81476	264.03961	-242.84412	678.34314	267.45218	-297.13486	463.26907	279.67413	-281.93350	437.14282	392.88141	-361.25824	364.23627	267.71515	-370.08539	317.00955	266.92737	-309.84512	361.58038	257.70300	-310.44196	314.34995	254.94781	-347.79922	76.97321	252.35110	-324.13431	91.16005	343.48645	-404.86084	48.33553	312.77637	-220.28995	21.47470	210.49863	-186.36093	47.50358	258.15964	-205.90872	21.51988	317.29721	-352.05545	981.54504	488.27640	-184.61778	957.68451	553.42145	-314.42776	748.14966	632.43970	-317.15063	684.96112	628.99664	-250.15938	751.26068	637.00977	-239.36406	689.81488	635.73877	-285.44095	465.95129	619.64709	-285.89371	448.14316	508.14188	-362.91803	339.57312	645.09863	-356.60706	294.47720	647.33521	-301.36957	340.78723	648.15271	-304.04190	293.84305	652.06805	-336.45886	80.55613	648.17371	-314.21545	87.63387	559.03448	-392.13931	48.21185	594.51166	-190.16058	31.25003	586.30981	-166.64272	47.26196	635.56995	-209.14838	17.90000	690.77277
186	0.74000	-351.10449	978.76398	413.91284	-184.94536	962.25244	339.94904	-321.78345	730.22302	276.79742	-317.63553	668.67023	280.40039	-256.26624	739.79364	264.03091	-242.80940	678.34796	267.46631	-297.11682	463.25510	279.69159	-281.94620	437.12930	392.88409	-361.23666	364.23743	267.72012	-370.06134	317.02866	266.92307	-309.86145	361.58902	257.71436	-310.43268	314.35928	254.95927	-347.78030	76.97890	252.32707	-324.12390	91.17434	343.49307	-404.87253	48.34177	312.79868	-220.31429	21.47589	210.49570	-186.33774	47.51089	258.14139	-205.88680	21.54015	317.28711	-351.98041	981.51404	488.33868	-184.59010	957.69574	553.40112	-314.34949	748.17181	632.44214	-317.11560	684.97742	628.98767	-250.10170	751.28699	637.00446	-239.31969	689.83783	635.72589	-285.43024	465.96902	619.64551	-285.90930	448.14758	508.13477	-362.94885	339.57300	645.07196	-356.60052	294.48123	647.32983	-301.34399	340.82016	648.13391	-304.05411	293.84760	652.05133	-336.43204	80.58768	648.15253	-314.23340	87.63621	559.01959	-392.16278	48.19438	594.51416	-190.15509	31.26962	586.31024	-166.62024	47.27973	635.55890	-209.11343	17.92807	690.78180
